<svg height="496pt" viewBox="-27 0 495 496" width="496pt" xmlns="http://www.w3.org/2000/svg" xmlns:xlink="http://www.w3.org/1999/xlink"><linearGradient id="a" gradientUnits="userSpaceOnUse" x1="220.5" x2="220.5" y1="496" y2="0"><stop offset="0" stop-color="#9f2fff"/><stop offset="1" stop-color="#0bb1d3"/></linearGradient><path d="m136.5 212.945312 105.886719-52.945312-105.886719-52.945312zm16-80 54.113281 27.054688-54.113281 27.054688zm193.753906 43.054688-55.992187 224h-25.167969l6.855469-96h24.550781v-16h-221.289062l-1.773438-16h223.0625v-240c0-17.648438-14.351562-32-32-32h-160c-17.648438 0-32 14.351562-32 32v224h-16.9375l17.777344 160h223.160156c4.414062 0 8 3.59375 8 8s-3.585938 8-8 8h-200c-17.648438 0-32 14.351562-32 32s14.351562 32 32 32 32-14.351562 32-32c0-5.855469-1.695312-11.273438-4.449219-16h120.90625c-2.761719 4.726562-4.457031 10.144531-4.457031 16 0 17.648438 14.351562 32 32 32s32-14.351562 32-32c0-5.992188-1.761719-11.535156-4.632812-16.335938 11.632812-1.65625 20.632812-11.585937 20.632812-23.664062 0-9.769531-5.886719-18.160156-14.28125-21.902344l44.527344-178.097656h65.753906c13.230469 0 24-10.769531 24-24s-10.769531-24-24-24zm-257.753906 80v-192h192v192zm16-240h160c8.824219 0 16 7.175781 16 16v16h-192v-16c0-8.824219 7.175781-16 16-16zm8 448c0 8.824219-7.175781 16-16 16s-16-7.175781-16-16 7.175781-16 16-16 16 7.175781 16 16zm160 16c-8.824219 0-16-7.175781-16-16s7.175781-16 16-16 16 7.175781 16 16-7.175781 16-16 16zm-23.449219-80h-23.964843l6.855468-96h23.964844zm-95.957031-96h23.40625v96h-16.550781zm-9.1875 96h-23.964844l-6.855468-96h23.964843zm48.59375-96h23.40625l-6.855469 96h-16.550781zm-115.503906 0h20.0625l6.855468 96h-16.246093zm347.503906-104c0 4.40625-3.585938 8-8 8h-61.753906l4-16h57.753906c4.414062 0 8 3.59375 8 8zm-402.910156-45.089844c-13.601563-13.597656-21.089844-31.679687-21.089844-50.910156s7.488281-37.3125 21.089844-50.910156l11.308594 11.308594c-10.566407 10.585937-16.398438 24.640624-16.398438 39.601562s5.832031 29.015625 16.398438 39.601562zm33.941406-67.878906c-4.535156 4.527344-7.03125 10.554688-7.03125 16.96875s2.496094 12.441406 7.03125 16.96875l-11.3125 11.320312c-7.550781-7.554687-11.71875-17.601562-11.71875-28.289062s4.167969-20.734375 11.71875-28.289062zm296.96875 16.96875c0-14.960938-5.832031-29.015625-16.398438-39.601562l11.308594-11.308594c13.601563 13.597656 21.089844 31.679687 21.089844 50.910156s-7.488281 37.3125-21.089844 50.910156l-11.308594-11.308594c10.566407-10.585937 16.398438-24.640624 16.398438-39.601562zm-39.03125 16.96875c4.527344-4.527344 7.03125-10.554688 7.03125-16.96875s-2.503906-12.441406-7.03125-16.96875l11.3125-11.320312c7.550781 7.554687 11.71875 17.601562 11.71875 28.289062s-4.167969 20.734375-11.71875 28.289062zm0 0" fill="url(#a)"/></svg>
